# xmcd CD database file
#
# Track frame offsets:
#	150
#	20726
#	32804
#	48538
#	61105
#	73055
#	86545
#	107362
#	118891
#	130966
#
# Disc length: 1983 seconds
#
# Revision: 0
# Processed by: cddbd v1.5.2PL0 Copyright (c) Steve Scherf et al.
# Submitted via: CDex 1.70beta2
#
DISCID=8907bd0a
DTITLE=George Shearing - Black Satin
DYEAR=1956
DGENRE=Jazz
TTITLE0=The Folks Who Live On The Hill
TTITLE1=If I Should Lose You
TTITLE2=Starlight Souvenirs
TTITLE3=What Is There To Say
TTITLE4=Black Satin
TTITLE5=You Don't Know What Love Is
TTITLE6=Nothing Ever Changes My Love For You
TTITLE7=One Morning In May
TTITLE8=Moon Song
TTITLE9=Medley: As Long As I Live/Let's Live Again
EXTD=YEAR: 1956
EXTT0=
EXTT1=
EXTT2=
EXTT3=
EXTT4=
EXTT5=
EXTT6=
EXTT7=
EXTT8=
EXTT9=
PLAYORDER=
